<svg xmlns="http://www.w3.org/2000/svg" width="988" height="494" viewBox="0 0 988 494" role="img" aria-label="ThaB Media logo">
  <title>ThaB Media Logo</title>
  <path d="M 537.0 176.0 L 529.0 184.0 L 522.0 198.0 L 523.0 217.0 L 526.0 222.0 L 532.0 227.0 L 541.0 230.0 L 552.0 230.0 L 562.0 226.0 L 568.0 220.0 L 570.0 215.0 L 571.0 205.0 L 569.0 193.0 L 571.0 184.0 L 574.0 179.0 L 581.0 173.0 L 590.0 170.0 L 607.0 171.0 L 619.0 180.0 L 625.0 197.0 L 625.0 227.0 L 619.0 233.0 L 613.0 236.0 L 572.0 244.0 L 546.0 252.0 L 529.0 261.0 L 519.0 271.0 L 513.0 281.0 L 510.0 291.0 L 510.0 310.0 L 514.0 322.0 L 524.0 335.0 L 537.0 343.0 L 549.0 347.0 L 563.0 349.0 L 581.0 348.0 L 593.0 345.0 L 606.0 339.0 L 616.0 332.0 L 627.0 320.0 L 633.0 334.0 L 646.0 345.0 L 661.0 349.0 L 671.0 349.0 L 689.0 344.0 L 698.0 338.0 L 707.0 329.0 L 708.0 326.0 L 702.0 320.0 L 692.0 328.0 L 684.0 328.0 L 677.0 319.0 L 676.0 205.0 L 671.0 188.0 L 660.0 175.0 L 643.0 165.0 L 618.0 159.0 L 585.0 159.0 L 554.0 166.0 Z M 624.0 243.0 L 625.0 294.0 L 619.0 310.0 L 609.0 321.0 L 601.0 325.0 L 585.0 326.0 L 575.0 322.0 L 566.0 313.0 L 562.0 303.0 L 561.0 291.0 L 566.0 273.0 L 570.0 267.0 L 583.0 256.0 Z M 280.0 87.0 L 279.0 97.0 L 292.0 101.0 L 297.0 106.0 L 300.0 115.0 L 300.0 316.0 L 297.0 326.0 L 291.0 332.0 L 279.0 335.0 L 279.0 346.0 L 377.0 345.0 L 376.0 335.0 L 365.0 333.0 L 358.0 325.0 L 356.0 318.0 L 355.0 222.0 L 356.0 212.0 L 363.0 196.0 L 373.0 187.0 L 387.0 182.0 L 399.0 182.0 L 409.0 186.0 L 416.0 194.0 L 420.0 211.0 L 419.0 319.0 L 416.0 327.0 L 411.0 332.0 L 398.0 336.0 L 398.0 346.0 L 493.0 346.0 L 493.0 335.0 L 487.0 335.0 L 479.0 331.0 L 476.0 328.0 L 472.0 318.0 L 472.0 197.0 L 469.0 186.0 L 464.0 177.0 L 455.0 168.0 L 444.0 162.0 L 432.0 159.0 L 413.0 158.0 L 397.0 160.0 L 381.0 165.0 L 365.0 175.0 L 356.0 184.0 L 355.0 87.0 Z M 720.0 37.0 L 720.0 48.0 L 731.0 52.0 L 736.0 57.0 L 740.0 67.0 L 740.0 312.0 L 737.0 323.0 L 730.0 331.0 L 716.0 335.0 L 716.0 346.0 L 866.0 346.0 L 896.0 340.0 L 909.0 335.0 L 923.0 327.0 L 940.0 310.0 L 950.0 290.0 L 953.0 277.0 L 953.0 252.0 L 949.0 236.0 L 939.0 218.0 L 927.0 206.0 L 918.0 200.0 L 899.0 191.0 L 867.0 183.0 L 868.0 181.0 L 873.0 181.0 L 892.0 175.0 L 908.0 166.0 L 919.0 156.0 L 930.0 138.0 L 934.0 124.0 L 934.0 98.0 L 931.0 86.0 L 922.0 70.0 L 907.0 56.0 L 892.0 48.0 L 879.0 43.0 L 855.0 38.0 Z M 801.0 191.0 L 831.0 191.0 L 854.0 196.0 L 865.0 202.0 L 873.0 209.0 L 884.0 225.0 L 889.0 240.0 L 891.0 258.0 L 890.0 276.0 L 887.0 290.0 L 882.0 302.0 L 875.0 312.0 L 864.0 322.0 L 857.0 326.0 L 843.0 330.0 L 802.0 331.0 L 800.0 329.0 Z M 801.0 52.0 L 834.0 52.0 L 848.0 56.0 L 863.0 68.0 L 872.0 86.0 L 875.0 114.0 L 873.0 131.0 L 868.0 147.0 L 862.0 157.0 L 850.0 169.0 L 836.0 175.0 L 800.0 175.0 Z M 36.0 123.0 L 50.0 123.0 L 57.0 104.0 L 68.0 86.0 L 84.0 71.0 L 96.0 65.0 L 107.0 62.0 L 152.0 62.0 L 152.0 304.0 L 149.0 317.0 L 145.0 324.0 L 134.0 332.0 L 118.0 335.0 L 117.0 346.0 L 250.0 346.0 L 250.0 335.0 L 244.0 335.0 L 230.0 330.0 L 221.0 321.0 L 217.0 307.0 L 218.0 61.0 L 672.0 61.0 L 671.0 58.0 L 682.0 37.0 L 36.0 37.0 Z" fill="#ffffff" fill-rule="evenodd"/>
  <path d="M 810.0 429.0 L 810.0 434.0 L 904.0 434.0 L 904.0 429.0 Z M 118.0 429.0 L 118.0 434.0 L 212.0 434.0 L 212.0 429.0 Z M 715.0 410.0 L 694.0 458.0 L 704.0 458.0 L 706.0 451.0 L 709.0 447.0 L 728.0 447.0 L 733.0 458.0 L 744.0 458.0 L 724.0 411.0 Z M 718.0 423.0 L 721.0 426.0 L 725.0 437.0 L 724.0 439.0 L 712.0 438.0 Z M 615.0 410.0 L 615.0 458.0 L 625.0 458.0 L 625.0 411.0 Z M 502.0 410.0 L 502.0 458.0 L 526.0 458.0 L 537.0 453.0 L 542.0 447.0 L 545.0 440.0 L 545.0 429.0 L 541.0 420.0 L 533.0 413.0 L 527.0 411.0 Z M 513.0 419.0 L 526.0 420.0 L 534.0 428.0 L 534.0 441.0 L 526.0 449.0 L 512.0 449.0 Z M 396.0 410.0 L 395.0 458.0 L 431.0 458.0 L 431.0 450.0 L 405.0 449.0 L 406.0 439.0 L 428.0 438.0 L 427.0 430.0 L 406.0 430.0 L 405.0 420.0 L 431.0 419.0 L 431.0 410.0 Z M 274.0 410.0 L 274.0 458.0 L 283.0 458.0 L 284.0 428.0 L 286.0 429.0 L 297.0 447.0 L 299.0 446.0 L 308.0 431.0 L 311.0 429.0 L 312.0 458.0 L 322.0 458.0 L 322.0 411.0 L 312.0 410.0 L 301.0 427.0 L 297.0 430.0 L 284.0 410.0 Z M 671.0 61.0 L 715.0 42.0 L 715.0 37.0 L 683.0 37.0 Z" fill="#FF0101" fill-rule="evenodd"/>
</svg>