<svg xmlns="http://www.w3.org/2000/svg" width="647" height="360" viewBox="0 0 647 360">
<path d="M 354.00 156.00 L 348.00 162.00 L 348.00 163.00 L 346.00 165.00 L 346.00 167.00 L 345.00 168.00 L 345.00 178.00 L 346.00 179.00 L 347.00 182.00 L 348.00 183.00 L 349.00 183.00 L 351.00 185.00 L 354.00 185.00 L 355.00 186.00 L 360.00 186.00 L 361.00 185.00 L 363.00 185.00 L 364.00 184.00 L 367.00 183.00 L 369.00 181.00 L 369.00 180.00 L 370.00 179.00 L 370.00 162.00 L 371.00 161.00 L 371.00 160.00 L 377.00 154.00 L 379.00 154.00 L 380.00 153.00 L 390.00 153.00 L 391.00 154.00 L 394.00 155.00 L 398.00 159.00 L 398.00 160.00 L 400.00 163.00 L 400.00 165.00 L 401.00 166.00 L 401.00 172.00 L 402.00 173.00 L 402.00 184.00 L 397.00 189.00 L 396.00 189.00 L 395.00 190.00 L 393.00 190.00 L 392.00 191.00 L 388.00 191.00 L 387.00 192.00 L 383.00 192.00 L 382.00 193.00 L 379.00 193.00 L 378.00 194.00 L 374.00 194.00 L 373.00 195.00 L 369.00 195.00 L 368.00 196.00 L 366.00 196.00 L 365.00 197.00 L 363.00 197.00 L 362.00 198.00 L 360.00 198.00 L 359.00 199.00 L 357.00 199.00 L 356.00 200.00 L 355.00 200.00 L 354.00 201.00 L 351.00 202.00 L 349.00 204.00 L 348.00 204.00 L 343.00 209.00 L 343.00 210.00 L 341.00 212.00 L 341.00 213.00 L 340.00 214.00 L 340.00 216.00 L 339.00 217.00 L 339.00 219.00 L 338.00 220.00 L 338.00 229.00 L 339.00 230.00 L 339.00 233.00 L 340.00 234.00 L 340.00 236.00 L 345.00 243.00 L 346.00 243.00 L 349.00 246.00 L 350.00 246.00 L 353.00 248.00 L 355.00 248.00 L 356.00 249.00 L 359.00 249.00 L 360.00 250.00 L 364.00 250.00 L 365.00 251.00 L 372.00 251.00 L 373.00 250.00 L 379.00 250.00 L 380.00 249.00 L 382.00 249.00 L 383.00 248.00 L 385.00 248.00 L 386.00 247.00 L 387.00 247.00 L 388.00 246.00 L 391.00 245.00 L 393.00 243.00 L 394.00 243.00 L 400.00 237.00 L 400.00 236.00 L 401.00 235.00 L 402.00 235.00 L 404.00 238.00 L 404.00 240.00 L 405.00 241.00 L 405.00 242.00 L 407.00 244.00 L 407.00 245.00 L 408.00 246.00 L 409.00 246.00 L 411.00 248.00 L 412.00 248.00 L 415.00 250.00 L 419.00 250.00 L 420.00 251.00 L 426.00 251.00 L 427.00 250.00 L 431.00 250.00 L 432.00 249.00 L 434.00 249.00 L 435.00 248.00 L 436.00 248.00 L 438.00 246.00 L 439.00 246.00 L 445.00 240.00 L 444.00 237.00 L 442.00 237.00 L 439.00 240.00 L 438.00 240.00 L 437.00 241.00 L 434.00 241.00 L 433.00 240.00 L 432.00 240.00 L 429.00 237.00 L 429.00 235.00 L 428.00 234.00 L 428.00 171.00 L 427.00 170.00 L 427.00 167.00 L 426.00 166.00 L 426.00 165.00 L 425.00 164.00 L 424.00 161.00 L 419.00 156.00 L 418.00 156.00 L 416.00 154.00 L 415.00 154.00 L 410.00 151.00 L 408.00 151.00 L 407.00 150.00 L 404.00 150.00 L 403.00 149.00 L 399.00 149.00 L 398.00 148.00 L 377.00 148.00 L 376.00 149.00 L 371.00 149.00 L 370.00 150.00 L 367.00 150.00 L 366.00 151.00 L 364.00 151.00 L 361.00 153.00 L 359.00 153.00 L 358.00 154.00 L 357.00 154.00 L 355.00 156.00 Z M 401.00 193.00 L 402.00 194.00 L 402.00 217.00 L 401.00 218.00 L 401.00 223.00 L 400.00 224.00 L 400.00 227.00 L 399.00 228.00 L 399.00 229.00 L 397.00 231.00 L 397.00 232.00 L 392.00 237.00 L 391.00 237.00 L 388.00 239.00 L 384.00 239.00 L 383.00 240.00 L 381.00 240.00 L 380.00 239.00 L 376.00 239.00 L 375.00 238.00 L 374.00 238.00 L 368.00 232.00 L 368.00 231.00 L 366.00 228.00 L 366.00 226.00 L 365.00 225.00 L 365.00 217.00 L 366.00 216.00 L 366.00 213.00 L 367.00 212.00 L 368.00 209.00 L 370.00 207.00 L 370.00 206.00 L 373.00 203.00 L 374.00 203.00 L 376.00 201.00 L 377.00 201.00 L 382.00 198.00 L 384.00 198.00 L 385.00 197.00 L 387.00 197.00 L 388.00 196.00 L 391.00 196.00 L 392.00 195.00 L 395.00 195.00 L 396.00 194.00 L 398.00 194.00 L 399.00 193.00 Z" fill="#112866" fill-rule="evenodd"/>
<path d="M 212.00 109.00 L 212.00 113.00 L 213.00 113.00 L 214.00 114.00 L 217.00 114.00 L 222.00 119.00 L 222.00 120.00 L 223.00 121.00 L 223.00 236.00 L 222.00 237.00 L 221.00 240.00 L 218.00 243.00 L 217.00 243.00 L 216.00 244.00 L 213.00 244.00 L 212.00 245.00 L 211.00 245.00 L 211.00 249.00 L 264.00 249.00 L 264.00 245.00 L 263.00 245.00 L 262.00 244.00 L 259.00 244.00 L 254.00 239.00 L 254.00 238.00 L 253.00 237.00 L 253.00 233.00 L 252.00 232.00 L 252.00 180.00 L 253.00 179.00 L 253.00 175.00 L 254.00 174.00 L 254.00 172.00 L 255.00 171.00 L 256.00 168.00 L 261.00 163.00 L 262.00 163.00 L 264.00 161.00 L 266.00 161.00 L 267.00 160.00 L 271.00 160.00 L 272.00 159.00 L 276.00 159.00 L 277.00 160.00 L 279.00 160.00 L 280.00 161.00 L 283.00 162.00 L 286.00 165.00 L 286.00 166.00 L 288.00 169.00 L 288.00 172.00 L 289.00 173.00 L 289.00 234.00 L 288.00 235.00 L 288.00 237.00 L 285.00 242.00 L 284.00 242.00 L 282.00 244.00 L 279.00 244.00 L 278.00 245.00 L 277.00 245.00 L 277.00 249.00 L 328.00 249.00 L 328.00 245.00 L 326.00 245.00 L 325.00 244.00 L 323.00 244.00 L 322.00 243.00 L 321.00 243.00 L 319.00 241.00 L 319.00 240.00 L 317.00 237.00 L 317.00 235.00 L 316.00 234.00 L 316.00 166.00 L 315.00 165.00 L 315.00 163.00 L 314.00 162.00 L 313.00 159.00 L 311.00 157.00 L 311.00 156.00 L 306.00 152.00 L 305.00 152.00 L 300.00 149.00 L 297.00 149.00 L 296.00 148.00 L 278.00 148.00 L 277.00 149.00 L 273.00 149.00 L 272.00 150.00 L 270.00 150.00 L 269.00 151.00 L 268.00 151.00 L 267.00 152.00 L 266.00 152.00 L 265.00 153.00 L 262.00 154.00 L 260.00 156.00 L 259.00 156.00 L 255.00 160.00 L 255.00 161.00 L 254.00 162.00 L 253.00 162.00 L 252.00 161.00 L 252.00 109.00 Z" fill="#112866" fill-rule="evenodd"/>
<path d="M 453.00 81.00 L 453.00 86.00 L 454.00 86.00 L 455.00 87.00 L 457.00 87.00 L 459.00 89.00 L 460.00 89.00 L 461.00 90.00 L 461.00 91.00 L 463.00 93.00 L 463.00 94.00 L 464.00 95.00 L 464.00 100.00 L 465.00 101.00 L 465.00 227.00 L 464.00 228.00 L 464.00 234.00 L 463.00 235.00 L 463.00 237.00 L 460.00 240.00 L 460.00 241.00 L 459.00 242.00 L 458.00 242.00 L 455.00 244.00 L 452.00 244.00 L 451.00 245.00 L 451.00 249.00 L 536.00 249.00 L 537.00 248.00 L 542.00 248.00 L 543.00 247.00 L 546.00 247.00 L 547.00 246.00 L 549.00 246.00 L 550.00 245.00 L 552.00 245.00 L 555.00 243.00 L 557.00 243.00 L 558.00 242.00 L 559.00 242.00 L 561.00 240.00 L 562.00 240.00 L 564.00 238.00 L 565.00 238.00 L 572.00 231.00 L 572.00 230.00 L 575.00 227.00 L 575.00 226.00 L 576.00 225.00 L 576.00 223.00 L 577.00 222.00 L 577.00 221.00 L 578.00 220.00 L 578.00 218.00 L 579.00 217.00 L 579.00 213.00 L 580.00 212.00 L 580.00 198.00 L 579.00 197.00 L 579.00 194.00 L 578.00 193.00 L 578.00 190.00 L 577.00 189.00 L 577.00 188.00 L 576.00 187.00 L 575.00 184.00 L 573.00 182.00 L 573.00 181.00 L 564.00 172.00 L 563.00 172.00 L 562.00 171.00 L 561.00 171.00 L 559.00 169.00 L 558.00 169.00 L 555.00 167.00 L 553.00 167.00 L 550.00 165.00 L 547.00 165.00 L 546.00 164.00 L 543.00 164.00 L 542.00 163.00 L 539.00 163.00 L 538.00 162.00 L 533.00 162.00 L 531.00 160.00 L 532.00 159.00 L 537.00 159.00 L 538.00 158.00 L 540.00 158.00 L 541.00 157.00 L 543.00 157.00 L 544.00 156.00 L 546.00 156.00 L 547.00 155.00 L 548.00 155.00 L 549.00 154.00 L 550.00 154.00 L 551.00 153.00 L 554.00 152.00 L 557.00 149.00 L 558.00 149.00 L 564.00 142.00 L 564.00 141.00 L 565.00 140.00 L 565.00 139.00 L 568.00 134.00 L 568.00 132.00 L 569.00 131.00 L 569.00 126.00 L 570.00 125.00 L 570.00 117.00 L 569.00 116.00 L 569.00 111.00 L 568.00 110.00 L 568.00 108.00 L 567.00 107.00 L 567.00 106.00 L 566.00 105.00 L 566.00 104.00 L 565.00 103.00 L 564.00 100.00 L 557.00 93.00 L 556.00 93.00 L 553.00 90.00 L 552.00 90.00 L 549.00 88.00 L 547.00 88.00 L 542.00 85.00 L 539.00 85.00 L 538.00 84.00 L 535.00 84.00 L 534.00 83.00 L 530.00 83.00 L 529.00 82.00 L 523.00 82.00 L 522.00 81.00 Z M 497.00 165.00 L 520.00 165.00 L 521.00 166.00 L 524.00 166.00 L 525.00 167.00 L 526.00 167.00 L 527.00 168.00 L 528.00 168.00 L 529.00 169.00 L 532.00 170.00 L 540.00 178.00 L 540.00 179.00 L 542.00 181.00 L 542.00 182.00 L 543.00 183.00 L 543.00 185.00 L 545.00 188.00 L 545.00 191.00 L 546.00 192.00 L 546.00 197.00 L 547.00 198.00 L 547.00 208.00 L 546.00 209.00 L 546.00 215.00 L 545.00 216.00 L 545.00 219.00 L 544.00 220.00 L 544.00 222.00 L 543.00 223.00 L 543.00 224.00 L 542.00 225.00 L 541.00 228.00 L 531.00 238.00 L 530.00 238.00 L 527.00 240.00 L 525.00 240.00 L 524.00 241.00 L 521.00 241.00 L 520.00 242.00 L 497.00 242.00 L 496.00 241.00 L 496.00 166.00 Z M 497.00 88.00 L 515.00 88.00 L 516.00 89.00 L 519.00 89.00 L 520.00 90.00 L 522.00 90.00 L 523.00 91.00 L 526.00 92.00 L 533.00 99.00 L 533.00 100.00 L 536.00 105.00 L 536.00 108.00 L 537.00 109.00 L 537.00 113.00 L 538.00 114.00 L 538.00 128.00 L 537.00 129.00 L 537.00 133.00 L 536.00 134.00 L 536.00 137.00 L 535.00 138.00 L 535.00 140.00 L 534.00 141.00 L 534.00 142.00 L 532.00 144.00 L 532.00 145.00 L 530.00 147.00 L 530.00 148.00 L 525.00 153.00 L 524.00 153.00 L 519.00 156.00 L 517.00 156.00 L 516.00 157.00 L 497.00 157.00 L 496.00 156.00 L 496.00 89.00 Z" fill="#112866" fill-rule="evenodd"/>
<path d="M 78.00 127.00 L 85.00 127.00 L 86.00 126.00 L 86.00 124.00 L 88.00 121.00 L 88.00 119.00 L 89.00 118.00 L 89.00 117.00 L 90.00 116.00 L 91.00 113.00 L 95.00 108.00 L 95.00 107.00 L 102.00 100.00 L 103.00 100.00 L 105.00 98.00 L 106.00 98.00 L 111.00 95.00 L 114.00 95.00 L 115.00 94.00 L 119.00 94.00 L 120.00 93.00 L 141.00 93.00 L 142.00 94.00 L 142.00 230.00 L 141.00 231.00 L 141.00 233.00 L 140.00 234.00 L 139.00 237.00 L 134.00 242.00 L 133.00 242.00 L 132.00 243.00 L 130.00 243.00 L 129.00 244.00 L 125.00 244.00 L 124.00 245.00 L 123.00 245.00 L 123.00 249.00 L 195.00 249.00 L 195.00 245.00 L 194.00 245.00 L 193.00 244.00 L 189.00 244.00 L 188.00 243.00 L 186.00 243.00 L 184.00 241.00 L 183.00 241.00 L 179.00 237.00 L 179.00 236.00 L 178.00 235.00 L 178.00 233.00 L 177.00 232.00 L 177.00 227.00 L 176.00 226.00 L 176.00 95.00 L 178.00 93.00 L 425.00 93.00 L 426.00 92.00 L 426.00 91.00 L 427.00 90.00 L 427.00 89.00 L 428.00 88.00 L 428.00 87.00 L 429.00 86.00 L 429.00 85.00 L 430.00 84.00 L 431.00 81.00 L 78.00 81.00 Z" fill="#112866" fill-rule="evenodd"/>
<path d="M 503.00 296.00 L 503.00 298.00 L 553.00 298.00 L 553.00 296.00 Z" fill="#FF0A0A" fill-rule="evenodd"/>
<path d="M 123.00 296.00 L 123.00 298.00 L 174.00 298.00 L 174.00 296.00 Z" fill="#FF0A0A" fill-rule="evenodd"/>
<path d="M 450.00 286.00 L 449.00 287.00 L 449.00 288.00 L 448.00 289.00 L 448.00 291.00 L 447.00 292.00 L 447.00 293.00 L 444.00 298.00 L 444.00 300.00 L 442.00 303.00 L 442.00 305.00 L 441.00 306.00 L 441.00 307.00 L 440.00 308.00 L 439.00 311.00 L 443.00 311.00 L 444.00 310.00 L 444.00 309.00 L 445.00 308.00 L 445.00 306.00 L 446.00 305.00 L 457.00 305.00 L 459.00 307.00 L 459.00 308.00 L 460.00 309.00 L 460.00 311.00 L 465.00 311.00 L 465.00 310.00 L 463.00 307.00 L 463.00 305.00 L 460.00 300.00 L 460.00 298.00 L 457.00 293.00 L 457.00 291.00 L 455.00 288.00 L 455.00 286.00 Z M 452.00 292.00 L 454.00 294.00 L 454.00 296.00 L 455.00 297.00 L 455.00 299.00 L 456.00 300.00 L 455.00 301.00 L 449.00 301.00 L 448.00 300.00 L 449.00 299.00 L 449.00 297.00 L 450.00 296.00 L 450.00 294.00 Z" fill="#FF0A0A" fill-rule="evenodd"/>
<path d="M 396.00 286.00 L 396.00 311.00 L 400.00 311.00 L 400.00 286.00 Z" fill="#FF0A0A" fill-rule="evenodd"/>
<path d="M 334.00 286.00 L 334.00 311.00 L 346.00 311.00 L 347.00 310.00 L 349.00 310.00 L 350.00 309.00 L 351.00 309.00 L 355.00 305.00 L 355.00 304.00 L 356.00 303.00 L 356.00 300.00 L 357.00 299.00 L 357.00 298.00 L 356.00 297.00 L 356.00 294.00 L 355.00 293.00 L 354.00 290.00 L 352.00 288.00 L 351.00 288.00 L 348.00 286.00 Z M 339.00 290.00 L 347.00 290.00 L 351.00 294.00 L 351.00 295.00 L 352.00 296.00 L 352.00 300.00 L 351.00 301.00 L 351.00 303.00 L 348.00 306.00 L 347.00 306.00 L 346.00 307.00 L 339.00 307.00 L 338.00 306.00 L 338.00 291.00 Z" fill="#FF0A0A" fill-rule="evenodd"/>
<path d="M 275.00 286.00 L 275.00 311.00 L 294.00 311.00 L 294.00 307.00 L 281.00 307.00 L 280.00 306.00 L 280.00 301.00 L 281.00 300.00 L 292.00 300.00 L 292.00 296.00 L 281.00 296.00 L 280.00 295.00 L 280.00 291.00 L 281.00 290.00 L 290.00 290.00 L 291.00 289.00 L 294.00 289.00 L 294.00 286.00 Z" fill="#FF0A0A" fill-rule="evenodd"/>
<path d="M 209.00 286.00 L 209.00 311.00 L 213.00 311.00 L 213.00 295.00 L 214.00 294.00 L 216.00 296.00 L 217.00 299.00 L 221.00 304.00 L 222.00 304.00 L 223.00 303.00 L 224.00 300.00 L 226.00 298.00 L 226.00 297.00 L 229.00 294.00 L 230.00 295.00 L 230.00 311.00 L 234.00 311.00 L 234.00 286.00 L 229.00 286.00 L 227.00 288.00 L 227.00 289.00 L 226.00 290.00 L 226.00 291.00 L 224.00 293.00 L 224.00 294.00 L 221.00 297.00 L 220.00 296.00 L 219.00 293.00 L 217.00 291.00 L 217.00 290.00 L 215.00 288.00 L 215.00 287.00 L 214.00 286.00 Z" fill="#FF0A0A" fill-rule="evenodd"/>
<path d="M 428.00 92.00 L 429.00 92.00 L 432.00 90.00 L 434.00 90.00 L 435.00 89.00 L 436.00 89.00 L 441.00 86.00 L 443.00 86.00 L 448.00 83.00 L 450.00 83.00 L 450.00 81.00 L 433.00 81.00 L 432.00 82.00 L 432.00 83.00 L 431.00 84.00 L 431.00 85.00 L 428.00 90.00 Z" fill="#FF0A0A" fill-rule="evenodd"/>
</svg>